#!OML:ASF F:\VICON\USERDATA\INSTALL\rory3\rory3.ASF
:FULLY-SPECIFIED
:DEGREES
73
root -0.2049830417555893 17.727222334299626 38.27498213951031 3.4743137316907924 1.147483599755152 1.0007471798871106
lfemur 8.052249108728482 -2.4289998331613925 -27.680697807360648
ltibia 29.222965794889465
lfoot -4.154048249366978 -5.046906446222876
ltoes -26.612298081841136
rfemur -47.2191152729501 -5.443058549536275 22.18538692742633
rtibia 90.15873229946563
rfoot 4.6827518158117645 -5.866140975131089
rtoes 0.32581649489106423
lowerback 14.286158631353189 -0.8865557763445556 -2.6565431021440267
upperback -1.0921856967648864 -1.595984774072949 0.2875530952494101
thorax -9.218009191044803 -0.6203043227103217 2.3025072197558494
lowerneck -19.93522148752385 -3.296933908710347 -2.189316632511802
upperneck 16.99875927519161 -4.591103741694319 3.1534955688103086
head 8.776656758028214 -1.9367748961083115 0.8321122106660651
lclavicle -1.0087647904036015e-15 -8.470598925030003e-16
lhumerus -33.743699153365256 -8.225691357577006 92.95005802271336
lradius 112.16498548794945
lwrist 44.65607223237432
lhand -23.579028710809848 2.312095576677372
lfingers 7.125020000000057
lthumb 2.8835610659304685 32.20890960095049
rclavicle -1.0087647904036015e-15 -8.470598925030003e-16
rhumerus -60.7304914807622 10.13115135175049 -100.92138000862123
rradius 103.15851483481022
rwrist -28.006422278549774
rhand -19.67071265632008 -11.056373576256465
rfingers 7.125020000000057
rthumb 6.657408697091798 8.347657360278603
74
root -0.19904258868899466 17.930421190936965 39.070204989707506 3.8185001213262804 -0.1782859663562184 0.6372047332490478
lfemur 11.932491531264603 -1.917412355868052 -27.127931537985912
ltibia 26.45605976698012
lfoot 4.398316665743922 -7.718041811691359
ltoes -26.63030232311826
rfemur -46.763820655796245 -3.3433440340277776 23.608801353099114
rtibia 78.86116554430762
rfoot 4.3114412490123755 -5.512896286285262
rtoes -2.9798374897479185
lowerback 13.41058438184041 -1.0466203026453593 -2.4290289461749452
upperback -1.3561112082780722 -1.7318876277675406 0.6605468400682482
thorax -9.03157280479119 -0.6861703001840617 2.6221910237538872
lowerneck -19.605132497844963 -2.8984514216218527 -2.3150591283193735
upperneck 17.71715117870895 -3.9915056253923833 2.9947481721799973
head 8.937095861248835 -1.6784623877425775 0.8695178105164919
lclavicle -7.056502632102707e-16 -6.123574764868894e-16
lhumerus -33.280827890362836 -7.5103400286402024 92.10155926402255
lradius 113.20991564769812
lwrist 44.938568961797955
lhand -23.41362812649618 2.5594198907677246
lfingers 7.125020000000058
lthumb 3.0432403597337023 32.450311852036805
rclavicle -7.056502632102707e-16 -6.123574764868894e-16
rhumerus -62.72340331972963 10.040423276557014 -99.88104766281468
rradius 103.94182227144105
rwrist -28.304892504203572
rhand -19.40956088084257 -11.314427598934284
rfingers 7.125020000000058
rthumb 6.909533907127979 7.96520177845327
75
root -0.19414708012383658 18.102484127322818 39.998261463538306 4.0890057744775685 -1.4109014089485918 0.3715498967033244
lfemur 14.8828933972388 -1.78135800162644 -26.825384231069457
ltibia 24.517361180523366
lfoot 12.164797622825303 -9.960191337316388
ltoes -24.64663060006044
rfemur -45.794813874772856 -1.5475294776017399 24.66107007835133
rtibia 67.50182055185564
rfoot 4.229655188666685 -4.938450035622268
rtoes -6.6026045341010455
lowerback 12.629966252955677 -1.1463751183676805 -2.253560564995092
upperback -1.6255743472889557 -1.8039742998060846 0.9309646726104317
thorax -8.91998618021028 -0.7221024406472397 2.8201200691663364
lowerneck -19.28553745097943 -2.6321857176007875 -2.461203617092634
upperneck 18.333929973621153 -3.584861155805851 2.9082014693435565
head 9.07430875126196 -1.5048149753969395 0.9130867437045839
lclavicle -5.562291422253595e-16 -4.9666031958088965e-16
lhumerus -33.34113798431609 -7.385783801325278 91.4469825628102
lradius 113.90723083745934
lwrist 44.682056922781996
lhand -23.098551548544183 2.776240924365128
lfingers 7.125020000000058
lthumb 3.347477608976395 32.66162349861169
rclavicle -5.562291422253595e-16 -4.9666031958088965e-16
rhumerus -64.46306621956028 9.665244430642925 -98.8979926025612
rradius 104.57590518280703
rwrist -28.48022879238496
rhand -19.189695505994912 -11.568152027613625
rfingers 7.125020000000058
rthumb 7.121695007938332 7.780303829319002
76
root -0.18444768089407343 18.240764632667204 41.358481366646025 4.290212148455107 -2.363970122100573 0.27835934300454523
lfemur 16.950836181387736 -2.1609991238247814 -26.814551553675606
ltibia 23.725670020755235
lfoot 18.369435115214355 -11.69036153235778
ltoes -21.528723037412743
rfemur -44.483146795816545 -0.31776258988438677 25.368907539290756
rtibia 57.0886750735325
rfoot 4.552130733723956 -4.332197912034495
rtoes -10.111876786547384
lowerback 12.040027963352225 -1.2398214392929447 -2.107332384490972
upperback -1.8807106325990985 -1.8839767634345095 1.0974507981134574
thorax -8.892945908639913 -0.7622112224304768 2.9242507175864825
lowerneck -19.004026755416334 -2.4745427152648194 -2.5972678101623696
upperneck 18.784404076406986 -3.3327807377472394 2.8581018639967093
head 9.169030768117848 -1.4016490636016876 0.9493309136850406
lclavicle -4.4221595720390466e-16 -4.0837962656387933e-16
lhumerus -33.70067839332196 -7.641251275178937 91.01153812018532
lradius 114.50148782162864
lwrist 44.11360799555186
lhand -22.719439161614943 2.8734684518181375
lfingers 7.125020000000058
lthumb 3.713566758377647 32.75410630920551
rclavicle -4.4221595720390466e-16 -4.0837962656387933e-16
rhumerus -65.81969098177835 9.122934785133628 -97.99187008938648
rradius 105.44747571705093
rwrist -28.356304135207804
rhand -19.022654921145257 -11.616152662010126
rfingers 7.125020000000058
rthumb 7.282851769364079 7.799696717047535
77
root -0.17871528504405249 18.335477104820352 42.6926575591016 4.343199739999246 -2.990856393944651 0.3261012768121061
lfemur 17.985210684798375 -3.029799373281408 -27.132262045449036
ltibia 24.062585871965393
lfoot 22.41869248977508 -13.133352318406452
ltoes -18.234610244753462
rfemur -43.18555474787128 0.22175144139549685 25.707619450488686
rtibia 47.833186160334755
rfoot 5.073712557119999 -3.9417187673520764
rtoes -13.245472669274102
lowerback 11.63910348451401 -1.3751411202145252 -2.0428248575980916
upperback -2.0901089062126843 -2.0426114134855067 1.165783031805201
thorax -8.936904204826188 -0.8383790869129965 2.94651637351691
lowerneck -18.802804221848557 -2.4097252811762497 -2.7160717874423397
upperneck 18.95502062940746 -3.2094021503748547 2.790065489340639
head 9.186196456948036 -1.3584475516618282 0.9630982300828492
lclavicle -5.848497414362399e-16 -5.188214052267536e-16
lhumerus -34.327145066262915 -8.189700194133511 90.6883981168134
lradius 114.29691058969172
lwrist 43.17689631854613
lhand -22.465452573460517 2.7341430916116494
lfingers 7.125020000000058
lthumb 3.9588386458136133 32.612067475522416
rclavicle -5.848497414362399e-16 -5.188214052267536e-16
rhumerus -66.84673844022761 8.202972485642013 -97.25841935269833
rradius 105.86320079358228
rwrist -27.930607481295247
rhand -18.90371740967638 -11.21875892552708
rfingers 7.125020000000058
rthumb 7.397556234738121 7.862174350347504
78
root -0.17974968933465335 18.381734919123176 43.79151579930418 4.222652036371386 -3.2742634333877128 0.47103168417954855
lfemur 18.15309001917031 -4.125156518856205 -27.61507328975542
ltibia 25.787563396259042
lfoot 24.402917410261626 -14.426952125015731
ltoes -15.368554671063823
rfemur -41.892345847312356 0.1875297186650111 25.798177382339215
rtibia 40.15860738241369
rfoot 5.69632709137279 -3.892675829582435
rtoes -15.679895436118963
lowerback 11.424872709613787 -1.538672028119199 -2.038909437365552
upperback -2.2047684918080415 -2.2573615637569935 1.1707286476619458
thorax -8.977959400853203 -0.940505488092552 2.9295579270415346
lowerneck -18.66836996714076 -2.4133970749506015 -2.8167710031018234
upperneck 18.863923048186425 -3.1765020262567503 2.7012675176897307
head 9.12743604210263 -1.3585870033215195 0.9570317853370404
lclavicle -8.670657779373934e-16 -7.373421110977347e-16
lhumerus -35.0044838762445 -8.791870398141064 90.48990168822979
lradius 113.35622535549291
lwrist 42.056644615630276
lhand -22.4231767071357 2.529969546043894
lfingers 7.125020000000057
lthumb 3.9996757837677084 32.40799303274275
rclavicle -8.670657779373934e-16 -7.373421110977347e-16
rhumerus -67.44547200118845 7.057724944400773 -96.65572199026471
rradius 105.79697026101513
rwrist -27.23914367008657
rhand -18.819111059992245 -10.22636644597436
rfingers 7.125020000000057
rthumb 7.479156430182061 7.86656965212091
